HIERARCHY
ROOT newVegas:Hips
{
	OFFSET 0.000000 96.479958 0.000000
	CHANNELS 6 Xposition Yposition Zposition Xrotation Yrotation Zrotation
	JOINT newVegas:Pelvis
	{
		OFFSET 0.000000 0.000000 0.000000
		CHANNELS 3 Xrotation Yrotation Zrotation
		JOINT newVegas:LeftUpLeg
		{
			OFFSET 18.735201 -5.666702 -4.541200
			CHANNELS 3 Xrotation Yrotation Zrotation
			JOINT newVegas:LeftLeg
			{
				OFFSET -0.021200 -31.938179 0.493100
				CHANNELS 3 Xrotation Yrotation Zrotation
				JOINT newVegas:LeftFoot
				{
					OFFSET 0.021200 -31.938179 -4.336299
					CHANNELS 3 Xrotation Yrotation Zrotation
					JOINT newVegas:LeftToeBase
					{
						OFFSET 0.943001 -26.722000 15.023500
						CHANNELS 3 Xrotation Yrotation Zrotation
						End Site
						{
							OFFSET 0.000000 30.670183 0.000000
						}
					}
				}
				JOINT newVegas:Left_PantLeg
				{
					OFFSET 0.663870 -9.044666 -1.108900
					CHANNELS 3 Xrotation Yrotation Zrotation
					End Site
					{
						OFFSET 1.415995 20.635357 0.000000
					}
				}
			}
		}
		JOINT newVegas:RightUpLeg
		{
			OFFSET -18.735201 -5.666702 -4.541200
			CHANNELS 3 Xrotation Yrotation Zrotation
			JOINT newVegas:RightLeg
			{
				OFFSET 0.018946 -31.938133 0.493100
				CHANNELS 3 Xrotation Yrotation Zrotation
				JOINT newVegas:RightFoot
				{
					OFFSET -0.018946 -31.938126 -4.336299
					CHANNELS 3 Xrotation Yrotation Zrotation
					JOINT newVegas:RightToeBase
					{
						OFFSET -0.943001 -26.722004 15.023500
						CHANNELS 3 Xrotation Yrotation Zrotation
						End Site
						{
							OFFSET 0.000000 30.670187 0.000000
						}
					}
				}
				JOINT newVegas:Right_PantLeg
				{
					OFFSET -0.661674 -9.044716 -1.108900
					CHANNELS 3 Xrotation Yrotation Zrotation
					End Site
					{
						OFFSET -1.415958 20.635269 0.000000
					}
				}
			}
		}
	}
	JOINT newVegas:Spine
	{
		OFFSET 0.000000 10.199997 -0.299500
		CHANNELS 3 Xrotation Yrotation Zrotation
		JOINT newVegas:Spine1
		{
			OFFSET 0.000000 11.900002 -1.516600
			CHANNELS 3 Xrotation Yrotation Zrotation
			JOINT newVegas:Spine2
			{
				OFFSET 0.000000 13.600006 -2.842500
				CHANNELS 3 Xrotation Yrotation Zrotation
				JOINT newVegas:Neck
				{
					OFFSET 0.000000 9.624100 -2.890100
					CHANNELS 3 Xrotation Yrotation Zrotation
					JOINT newVegas:Head
					{
						OFFSET 0.000000 14.068802 -1.351900
						CHANNELS 3 Xrotation Yrotation Zrotation
						JOINT newVegas:Hair_Back
						{
							OFFSET 0.000000 3.231903 -17.524799
							CHANNELS 3 Xrotation Yrotation Zrotation
							End Site
							{
								OFFSET 0.000000 19.849884 0.000000
							}
						}
						JOINT newVegas:Hair_Front
						{
							OFFSET 0.000000 31.260406 4.573800
							CHANNELS 3 Xrotation Yrotation Zrotation
							JOINT newVegas:Hair_Front1
							{
								OFFSET 0.000000 2.284103 11.993300
								CHANNELS 3 Xrotation Yrotation Zrotation
								JOINT newVegas:Hair_Front2
								{
									OFFSET 0.000000 2.284103 11.993300
									CHANNELS 3 Xrotation Yrotation Zrotation
									End Site
									{
										OFFSET 0.000000 12.208862 0.000000
									}
								}
							}
						}
						JOINT newVegas:Jowel
						{
							OFFSET 0.000000 -7.458206 6.864100
							CHANNELS 3 Xrotation Yrotation Zrotation
							End Site
							{
								OFFSET 0.000000 19.849884 0.000000
							}
						}
					}
				}
				JOINT newVegas:LeftShoulder
				{
					OFFSET 15.263000 10.923401 -0.547700
					CHANNELS 3 Xrotation Yrotation Zrotation
					JOINT newVegas:LeftArm
					{
						OFFSET 25.438599 -2.830597 -13.032500
						CHANNELS 3 Xrotation Yrotation Zrotation
						JOINT newVegas:LeftForeArm
						{
							OFFSET 29.960503 0.000000 0.000000
							CHANNELS 3 Xrotation Yrotation Zrotation
							JOINT newVegas:LeftHand
							{
								OFFSET 27.849251 0.000000 0.000000
								CHANNELS 3 Xrotation Yrotation Zrotation
								JOINT newVegas:LeftHandThumb1
								{
									OFFSET 4.487587 -3.305161 6.305391
									CHANNELS 3 Xrotation Yrotation Zrotation
									JOINT newVegas:LeftHandThumb2
									{
										OFFSET 5.480453 -3.164139 3.164143
										CHANNELS 3 Xrotation Yrotation Zrotation
										JOINT newVegas:LeftHandThumb3
										{
											OFFSET 5.159721 -2.978973 2.978967
											CHANNELS 3 Xrotation Yrotation Zrotation
											End Site
											{
												OFFSET 2.494507 5.926697 1.738678
											}
										}
									}
								}
								JOINT newVegas:LeftHandIndex1
								{
									OFFSET 18.578728 -0.527832 5.208049
									CHANNELS 3 Xrotation Yrotation Zrotation
									JOINT newVegas:LeftHandIndex2
									{
										OFFSET 3.192009 0.000000 0.000000
										CHANNELS 3 Xrotation Yrotation Zrotation
										JOINT newVegas:LeftHandIndex3
										{
											OFFSET 3.835129 0.000000 0.000000
											CHANNELS 3 Xrotation Yrotation Zrotation
											End Site
											{
												OFFSET -0.034599 3.816971 0.371180
											}
										}
									}
								}
								JOINT newVegas:LeftHandMiddle1
								{
									OFFSET 18.476105 0.000000 0.000000
									CHANNELS 3 Xrotation Yrotation Zrotation
									JOINT newVegas:LeftHandMiddle2
									{
										OFFSET 3.324875 0.000000 0.000000
										CHANNELS 3 Xrotation Yrotation Zrotation
										JOINT newVegas:LeftHandMiddle3
										{
											OFFSET 4.596550 0.000000 0.000000
											CHANNELS 3 Xrotation Yrotation Zrotation
											End Site
											{
												OFFSET 0.057701 4.578827 0.399218
											}
										}
									}
								}
								JOINT newVegas:LeftHandRing1
								{
									OFFSET 17.732719 0.121887 -4.201567
									CHANNELS 3 Xrotation Yrotation Zrotation
									JOINT newVegas:LeftHandRing2
									{
										OFFSET 2.733170 0.000000 0.000000
										CHANNELS 3 Xrotation Yrotation Zrotation
										JOINT newVegas:LeftHandRing3
										{
											OFFSET 3.178268 0.000000 0.000000
											CHANNELS 3 Xrotation Yrotation Zrotation
											End Site
											{
												OFFSET 0.119102 3.170624 0.185394
											}
										}
									}
								}
								JOINT newVegas:LeftHandPinky1
								{
									OFFSET 15.989624 -0.606689 -7.535461
									CHANNELS 3 Xrotation Yrotation Zrotation
									JOINT newVegas:LeftHandPinky2
									{
										OFFSET 2.538986 0.000000 0.000000
										CHANNELS 3 Xrotation Yrotation Zrotation
										JOINT newVegas:LeftHandPinky3
										{
											OFFSET 2.593102 0.000000 0.000000
											CHANNELS 3 Xrotation Yrotation Zrotation
											End Site
											{
												OFFSET -0.150902 2.584198 0.152708
											}
										}
									}
								}
							}
							JOINT newVegas:Left_Sleeve
							{
								OFFSET 0.267448 -0.649796 0.577675
								CHANNELS 3 Xrotation Yrotation Zrotation
								End Site
								{
									OFFSET 0.000000 15.991241 0.000000
								}
							}
							JOINT newVegas:Left_CapeC
							{
								OFFSET 15.715958 -8.608795 -6.935905
								CHANNELS 3 Xrotation Yrotation Zrotation
								JOINT newVegas:Left_CapeC1
								{
									OFFSET 0.000000 -8.688499 0.000000
									CHANNELS 3 Xrotation Yrotation Zrotation
									End Site
									{
										OFFSET 0.000000 8.688499 0.000000
									}
								}
							}
						}
						JOINT newVegas:Left_CapeB
						{
							OFFSET 26.118385 -8.608795 -7.079235
							CHANNELS 3 Xrotation Yrotation Zrotation
							JOINT newVegas:Left_CapeB1
							{
								OFFSET 0.000000 -8.688499 0.000000
								CHANNELS 3 Xrotation Yrotation Zrotation
								End Site
								{
									OFFSET 0.000000 8.688499 0.000000
								}
							}
						}
						JOINT newVegas:Left_CapeA
						{
							OFFSET 5.115639 -8.608795 -10.395809
							CHANNELS 3 Xrotation Yrotation Zrotation
							JOINT newVegas:Left_CapeA1
							{
								OFFSET 0.000000 -8.688499 0.000000
								CHANNELS 3 Xrotation Yrotation Zrotation
								End Site
								{
									OFFSET 0.000000 8.688499 0.000000
								}
							}
						}
					}
				}
				JOINT newVegas:RightShoulder
				{
					OFFSET -15.263000 10.923401 -0.547700
					CHANNELS 3 Xrotation Yrotation Zrotation
					JOINT newVegas:RightArm
					{
						OFFSET -25.438599 -2.830597 -13.032500
						CHANNELS 3 Xrotation Yrotation Zrotation
						JOINT newVegas:RightForeArm
						{
							OFFSET -29.960503 0.000000 0.000000
							CHANNELS 3 Xrotation Yrotation Zrotation
							JOINT newVegas:RightHand
							{
								OFFSET -27.849251 0.000000 0.000000
								CHANNELS 3 Xrotation Yrotation Zrotation
								JOINT newVegas:RightHandThumb1
								{
									OFFSET -4.487587 -3.305161 6.305391
									CHANNELS 3 Xrotation Yrotation Zrotation
									JOINT newVegas:RightHandThumb2
									{
										OFFSET -5.480453 -3.164139 3.164143
										CHANNELS 3 Xrotation Yrotation Zrotation
										JOINT newVegas:RightHandThumb3
										{
											OFFSET -5.159721 -2.978973 2.978967
											CHANNELS 3 Xrotation Yrotation Zrotation
											End Site
											{
												OFFSET -2.494507 5.926697 1.738678
											}
										}
									}
								}
								JOINT newVegas:RightHandIndex1
								{
									OFFSET -18.578728 -0.527832 5.208049
									CHANNELS 3 Xrotation Yrotation Zrotation
									JOINT newVegas:RightHandIndex2
									{
										OFFSET -3.192009 0.000000 0.000000
										CHANNELS 3 Xrotation Yrotation Zrotation
										JOINT newVegas:RightHandIndex3
										{
											OFFSET -3.835129 0.000000 0.000000
											CHANNELS 3 Xrotation Yrotation Zrotation
											End Site
											{
												OFFSET 0.034599 3.816971 0.371180
											}
										}
									}
								}
								JOINT newVegas:RightHandMiddle1
								{
									OFFSET -18.476105 0.000000 0.000000
									CHANNELS 3 Xrotation Yrotation Zrotation
									JOINT newVegas:RightHandMiddle2
									{
										OFFSET -3.324875 0.000000 0.000000
										CHANNELS 3 Xrotation Yrotation Zrotation
										JOINT newVegas:RightHandMiddle3
										{
											OFFSET -4.596550 0.000000 0.000000
											CHANNELS 3 Xrotation Yrotation Zrotation
											End Site
											{
												OFFSET -0.057701 4.578827 0.399218
											}
										}
									}
								}
								JOINT newVegas:RightHandRing1
								{
									OFFSET -17.732719 0.121887 -4.201567
									CHANNELS 3 Xrotation Yrotation Zrotation
									JOINT newVegas:RightHandRing2
									{
										OFFSET -2.733170 0.000000 0.000000
										CHANNELS 3 Xrotation Yrotation Zrotation
										JOINT newVegas:RightHandRing3
										{
											OFFSET -3.178268 0.000000 0.000000
											CHANNELS 3 Xrotation Yrotation Zrotation
											End Site
											{
												OFFSET -0.119102 3.170624 0.185394
											}
										}
									}
								}
								JOINT newVegas:RightHandPinky1
								{
									OFFSET -15.989624 -0.606689 -7.535461
									CHANNELS 3 Xrotation Yrotation Zrotation
									JOINT newVegas:RightHandPinky2
									{
										OFFSET -2.538986 0.000000 0.000000
										CHANNELS 3 Xrotation Yrotation Zrotation
										JOINT newVegas:RightHandPinky3
										{
											OFFSET -2.593102 0.000000 0.000000
											CHANNELS 3 Xrotation Yrotation Zrotation
											End Site
											{
												OFFSET 0.150902 2.584198 0.152708
											}
										}
									}
								}
							}
							JOINT newVegas:Right_CapeC
							{
								OFFSET -15.715958 -8.608795 -6.935905
								CHANNELS 3 Xrotation Yrotation Zrotation
								JOINT newVegas:Right_CapeC1
								{
									OFFSET 0.000000 -8.688499 0.000000
									CHANNELS 3 Xrotation Yrotation Zrotation
									End Site
									{
										OFFSET 0.000000 8.688499 0.000000
									}
								}
							}
							JOINT newVegas:Right_Sleeve
							{
								OFFSET -0.267448 -0.649994 0.577675
								CHANNELS 3 Xrotation Yrotation Zrotation
								End Site
								{
									OFFSET 0.000000 15.991302 0.000000
								}
							}
						}
						JOINT newVegas:Right_CapeA
						{
							OFFSET -5.115540 -8.608795 -10.395824
							CHANNELS 3 Xrotation Yrotation Zrotation
							JOINT newVegas:Right_CapeA1
							{
								OFFSET 0.000000 -8.688499 0.000000
								CHANNELS 3 Xrotation Yrotation Zrotation
								End Site
								{
									OFFSET 0.000000 8.688499 0.000000
								}
							}
						}
						JOINT newVegas:Right_CapeB
						{
							OFFSET -26.118187 -8.608795 -7.079266
							CHANNELS 3 Xrotation Yrotation Zrotation
							JOINT newVegas:Right_CapeB1
							{
								OFFSET 0.000000 -8.688499 0.000000
								CHANNELS 3 Xrotation Yrotation Zrotation
								End Site
								{
									OFFSET 0.000000 8.688499 0.000000
								}
							}
						}
					}
				}
				JOINT newVegas:Left_Collar
				{
					OFFSET 18.625099 8.655502 8.828100
					CHANNELS 3 Xrotation Yrotation Zrotation
					JOINT newVegas:Left_Collar1
					{
						OFFSET 14.783401 10.540405 -1.259500
						CHANNELS 3 Xrotation Yrotation Zrotation
						End Site
						{
							OFFSET 0.000000 18.199875 0.000000
						}
					}
				}
				JOINT newVegas:Collar_Back
				{
					OFFSET 0.000000 15.630707 -20.132601
					CHANNELS 3 Xrotation Yrotation Zrotation
					End Site
					{
						OFFSET 0.000000 22.523010 0.000000
					}
				}
				JOINT newVegas:Left_Peck
				{
					OFFSET 17.239599 -5.132599 25.482599
					CHANNELS 3 Xrotation Yrotation Zrotation
					End Site
					{
						OFFSET 0.000000 22.523010 0.000000
					}
				}
				JOINT newVegas:Right_Peck
				{
					OFFSET -17.239599 -5.132202 25.482599
					CHANNELS 3 Xrotation Yrotation Zrotation
					End Site
					{
						OFFSET 0.000000 22.523010 0.000000
					}
				}
				JOINT newVegas:Right_Collar
				{
					OFFSET -18.625099 8.655792 8.828100
					CHANNELS 3 Xrotation Yrotation Zrotation
					JOINT newVegas:Right_Collar1
					{
						OFFSET -14.783401 10.539993 -1.259500
						CHANNELS 3 Xrotation Yrotation Zrotation
						End Site
						{
							OFFSET 0.000000 18.199631 0.000000
						}
					}
				}
			}
		}
		JOINT newVegas:Belly
		{
			OFFSET 0.000000 -6.540398 9.014299
			CHANNELS 3 Xrotation Yrotation Zrotation
			End Site
			{
				OFFSET 0.000000 11.566666 0.000000
			}
		}
	}
	JOINT newVegas:ElvisFacialAnim_Joint
	{
		OFFSET 1.000000 -95.330101 -8.825800
		CHANNELS 3 Xrotation Yrotation Zrotation
		End Site
		{
			OFFSET 0.000000 35.315800 0.000000
		}
	}
}
MOTION
Frames: 4
Frame Time: 0.033333
1.183203 88.644096 3.674571 13.074526 34.413789 -6.260875 -0.000000 0.000002 -0.000000 -6.185170 9.147285 -9.877516 28.789152 11.092385 -4.911572 -25.385522 -2.425466 6.215437 -0.000000 -0.000001 -0.000001 -0.000002 0.000001 -0.000001 -50.780332 3.304627 1.054030 83.470144 -9.055676 -4.436639 21.097157 -10.716516 -2.275562 -0.000002 -0.000002 -0.000002 0.000000 -0.000001 0.000000 5.338732 -12.436069 -0.453990 0.744386 -5.583336 0.205792 0.756380 -5.580062 0.236348 -1.195687 4.453531 -1.215615 -1.195688 4.453524 -1.215614 0.000001 0.000003 -0.000000 -1.195762 4.453517 -1.215609 -1.195617 4.453542 -1.215627 -0.000000 0.000000 -0.000000 0.000001 0.000003 -0.000000 3.173765 -5.429871 1.755042 -5.934724 -40.776465 -55.226963 -0.000019 -63.815694 -0.000020 -9.125091 -17.968800 -1.546377 -1.948637 5.164680 7.380233 6.752017 18.342174 1.876723 -0.000000 -0.000001 0.000001 0.458080 4.471219 -21.098379 4.062314 5.571868 -72.170135 -0.000001 0.000002 -0.000000 1.691519 6.405931 -43.723914 4.690569 5.735201 -78.540905 -0.000001 -0.000002 0.000002 3.984086 7.872472 -70.664529 4.837115 5.762824 -80.003631 0.000002 0.000001 0.000002 6.866130 8.122809 -99.372668 1.968512 4.380645 -48.378681 0.000002 -0.000003 0.000000 0.000001 0.000003 -0.000002 0.000001 0.000003 -0.000002 0.000000 0.000003 -0.000002 0.000000 0.000000 0.000001 0.000001 0.000000 0.000001 0.000000 0.000000 0.000001 -0.000001 0.000001 0.000001 1.694554 -11.395434 18.199172 15.098987 -6.556760 55.716452 0.000010 43.055023 -0.000008 -7.447967 19.593028 -8.366811 -2.412524 -7.219064 -10.767967 6.311130 -14.061989 -2.078949 0.000000 -0.000001 0.000001 0.166982 -3.328161 12.957704 1.732360 -3.625763 51.064721 0.000000 -0.000001 0.000001 0.522168 -4.328894 26.042244 3.076653 -4.381314 70.141282 -0.000001 -0.000000 -0.000003 1.428048 -5.587949 45.226176 3.765349 -4.571153 78.948032 0.000001 0.000001 -0.000000 1.677784 -5.817179 49.401720 2.813458 -4.277393 66.655768 0.000000 0.000001 0.000001 -0.000002 -0.000001 0.000002 -0.000001 -0.000001 0.000002 -0.000002 -0.000001 0.000002 -0.000001 0.000002 -0.000000 -0.000001 0.000003 0.000000 -0.000001 0.000002 -0.000000 -0.000001 0.000002 -0.000000 0.000001 0.000001 -0.000000 0.000001 0.000001 -0.000000 0.000001 0.000001 -0.000000 0.000001 0.000001 -0.000000 0.000001 0.000001 -0.000000 0.000001 0.000001 -0.000000 0.000001 0.000001 -0.000000 0.000000 -0.000001 0.000000 -0.000000 0.000002 -0.000000 
8.025266 90.918770 10.039072 14.908942 36.971138 -10.113294 -0.000000 0.000001 -0.000000 -0.178549 8.450401 -8.250708 19.981319 8.738503 -1.982068 -13.920317 -1.272918 4.714997 0.000003 0.000004 -0.000000 -0.000001 0.000001 0.000000 -53.764797 1.472916 4.145062 72.426083 -9.827946 -3.773447 16.942043 -8.844389 -5.130096 0.000001 0.000000 -0.000002 0.000003 -0.000003 0.000002 5.323728 -14.415290 2.946805 0.573675 -6.604734 1.337852 0.569980 -6.598529 1.384736 -1.239180 4.484994 -1.210493 -1.239175 4.484995 -1.210495 0.000000 0.000000 0.000001 -1.239174 4.484992 -1.210495 -1.239176 4.484982 -1.210490 -0.000000 -0.000002 0.000001 0.000000 0.000000 0.000000 3.096042 -6.179718 2.230302 -4.572238 -50.738166 -55.286430 0.000026 -68.449615 0.000002 -8.351750 -18.322384 -0.156870 -2.293163 3.680009 3.265765 7.241961 22.048694 2.185983 -0.000000 -0.000000 -0.000003 0.964789 5.544761 -26.365626 4.353365 5.656772 -75.144321 -0.000001 -0.000003 0.000002 1.873894 6.587246 -46.246241 5.032090 5.793643 -81.940215 -0.000002 -0.000001 -0.000000 4.107986 7.914018 -71.946119 5.246032 5.819792 -84.054487 0.000000 -0.000001 0.000000 6.582713 10.269542 -94.837300 2.327322 4.673949 -52.921802 -0.000003 0.000000 -0.000000 0.000002 -0.000003 -0.000001 0.000002 -0.000003 -0.000001 0.000002 -0.000003 -0.000001 0.000005 0.000000 -0.000001 0.000005 0.000001 0.000000 0.000005 0.000000 -0.000001 0.000004 0.000000 -0.000001 1.182144 -11.528331 18.609282 14.430098 -15.394971 53.064474 -0.000000 39.593077 0.000011 -6.880935 20.730900 -7.946941 -2.601079 -6.436833 -10.677147 6.378513 -14.612628 -2.126365 0.000001 0.000000 -0.000002 0.176403 -3.368191 13.462989 1.369586 -3.300446 45.064594 -0.000000 -0.000000 -0.000002 0.495287 -4.273120 25.280615 2.663394 -4.209652 64.627960 -0.000001 0.000001 -0.000000 1.260126 -5.413238 42.241629 3.450039 -4.498323 74.961627 0.000001 0.000001 -0.000000 1.547260 -5.701576 47.254380 2.630667 -4.194016 64.181450 -0.000000 0.000001 0.000002 -0.000000 -0.000000 -0.000000 0.000000 -0.000000 -0.000000 0.000000 -0.000000 -0.000000 0.000001 0.000004 0.000001 0.000001 0.000005 -0.000000 0.000001 0.000004 0.000001 0.000001 0.000005 0.000001 0.000002 -0.000000 -0.000000 0.000002 -0.000000 -0.000000 0.000002 -0.000000 -0.000000 0.000002 -0.000000 -0.000000 0.000002 -0.000000 -0.000000 0.000002 -0.000000 -0.000000 0.000002 -0.000000 -0.000000 0.000001 -0.000001 -0.000000 -0.000000 0.000001 -0.000000 
14.392227 92.853004 16.087559 17.617042 37.736679 -14.242233 -0.000000 -0.000000 -0.000000 0.917308 9.115027 -4.688015 13.738634 8.238352 -0.557470 4.975102 -0.828768 1.110614 0.000002 0.000001 -0.000001 0.000000 0.000003 -0.000002 -53.956503 0.898094 5.047017 57.376608 -9.822504 -3.133119 13.366060 -7.329156 -0.625825 -0.000001 -0.000001 0.000002 0.000000 0.000000 -0.000002 4.826794 -15.518907 6.019445 0.254182 -7.218567 2.472158 0.246713 -7.204857 2.531466 -1.352040 4.489597 -1.192569 -1.352039 4.489599 -1.192569 -0.000001 0.000000 0.000000 -1.351965 4.489621 -1.192580 -1.352038 4.489597 -1.192569 -0.000001 0.000000 -0.000000 -0.000001 0.000000 -0.000000 3.042076 -6.455610 2.902574 -2.149898 -59.987147 -53.316081 -0.000019 -73.402896 -0.000015 -9.243607 -17.681867 0.933663 -2.582063 2.117149 -1.221281 7.767157 26.092304 2.493317 0.000003 -0.000002 -0.000001 1.688405 6.619613 -32.199154 4.703717 5.737820 -78.672127 -0.000000 -0.000000 -0.000001 2.096227 6.788055 -49.184913 5.417339 5.835014 -85.741468 -0.000002 0.000001 -0.000001 4.266967 7.962851 -73.576444 5.700402 5.849096 -88.522073 -0.000000 -0.000001 0.000000 5.948144 12.561613 -90.192382 2.742805 4.959593 -57.866455 0.000002 0.000000 -0.000002 0.000000 0.000001 -0.000003 0.000000 0.000001 -0.000003 -0.000000 0.000001 -0.000003 0.000001 0.000000 0.000001 0.000001 0.000000 0.000000 0.000001 0.000000 0.000001 -0.000000 -0.000000 0.000001 0.606481 -11.038950 19.506250 13.567191 -21.583528 49.057178 0.000007 36.732430 0.000003 -7.074046 20.595170 -6.948660 -2.803980 -5.630726 -10.652195 6.441760 -15.131844 -2.170569 0.000002 -0.000001 -0.000001 0.186206 -3.408321 13.970668 1.008588 -2.896278 38.393231 -0.000000 0.000001 -0.000001 0.464993 -4.207843 24.395402 2.226012 -3.973424 58.503842 -0.000000 0.000000 -0.000002 1.082768 -5.206961 38.891442 3.108935 -4.392808 70.563074 0.000000 0.000001 -0.000002 1.405445 -5.565504 44.833608 2.435617 -4.094161 61.482856 -0.000001 -0.000000 0.000001 0.000000 0.000000 0.000000 -0.000000 0.000000 0.000002 0.000000 -0.000000 0.000002 -0.000001 -0.000001 0.000001 -0.000001 0.000000 0.000002 -0.000001 -0.000001 0.000001 -0.000001 0.000000 0.000003 0.000003 -0.000000 0.000000 0.000003 -0.000000 0.000000 0.000003 -0.000000 0.000000 0.000003 -0.000000 0.000000 0.000003 -0.000000 0.000000 0.000003 -0.000000 0.000000 0.000003 -0.000000 0.000000 0.000000 -0.000002 0.000000 -0.000000 -0.000000 -0.000000 
20.615807 93.928459 21.860081 19.926047 37.301886 -16.930634 0.000001 0.000001 -0.000000 6.783524 8.944797 -0.123907 -1.287424 9.134248 0.148156 29.601954 -0.960318 -12.708392 -0.000001 0.000000 0.000000 0.000000 0.000001 -0.000000 -51.631326 -0.248250 4.553103 36.788874 -10.070596 -2.206705 16.139935 -7.462170 5.331714 -0.000001 0.000001 -0.000001 0.000000 -0.000002 0.000000 3.680333 -15.744455 8.012753 -0.092871 -7.384940 3.056552 -0.106150 -7.370994 3.105405 -1.467612 4.470226 -1.186531 -1.467609 4.470231 -1.186533 -0.000000 -0.000000 0.000000 -1.467614 4.470229 -1.186532 -1.467539 4.470235 -1.186538 0.000001 0.000001 -0.000001 -0.000000 -0.000000 0.000000 2.988468 -6.472217 3.221416 2.200008 -67.273996 -49.139554 -0.000130 -78.152015 -0.000141 -8.795861 -17.351915 3.055024 -2.754112 0.673485 -5.499779 8.268263 29.988693 2.759983 0.000002 -0.000003 -0.000001 2.543094 7.543192 -37.819734 5.032864 5.793772 -81.947824 -0.000002 0.000001 -0.000000 2.313452 6.965436 -51.936171 5.785988 5.850685 -89.361878 -0.000001 -0.000001 -0.000002 4.411381 8.003040 -75.046451 6.136681 5.844083 -92.802900 -0.000001 -0.000001 -0.000001 4.944044 14.714840 -85.483909 3.165498 5.200219 -62.637513 0.000000 -0.000003 -0.000002 -0.000001 -0.000000 0.000001 -0.000001 -0.000000 0.000001 -0.000001 -0.000001 0.000001 -0.000001 0.000001 -0.000000 -0.000000 0.000001 0.000000 -0.000001 0.000001 -0.000000 -0.000000 0.000000 -0.000000 -0.041450 -10.359782 19.936048 13.205215 -25.605404 45.246738 -0.000004 34.922153 -0.000002 -7.103636 19.960629 -6.109581 -3.004885 -4.835559 -10.591903 6.506663 -15.666869 -2.215608 0.000002 0.000000 -0.000002 0.196374 -3.448352 14.478270 0.710120 -2.473806 32.028557 0.000000 -0.000001 -0.000000 0.437529 -4.146274 23.566273 1.834195 -3.705550 52.657470 -0.000000 -0.000001 0.000000 0.925683 -5.001570 35.707553 2.790671 -4.267521 66.349830 -0.000000 0.000001 0.000002 1.276324 -5.430935 42.536806 2.252438 -3.989452 58.884441 0.000001 -0.000002 0.000001 0.000000 -0.000000 0.000002 -0.000000 -0.000001 0.000004 0.000000 0.000000 0.000002 -0.000002 0.000002 -0.000000 -0.000002 0.000003 0.000001 -0.000002 0.000002 -0.000000 -0.000002 0.000003 0.000002 0.000001 -0.000001 0.000000 0.000001 -0.000001 0.000000 0.000001 -0.000001 0.000000 0.000001 -0.000001 0.000000 0.000001 -0.000001 0.000000 0.000001 -0.000001 0.000000 0.000001 -0.000001 0.000000 0.000001 -0.000001 0.000000 0.000001 0.000001 -0.000000 
